<svg version="1.1" id="Layer_1" xmlns="http://www.w3.org/2000/svg" xmlns:xlink="http://www.w3.org/1999/xlink" x="0px" y="0px"
	 width="100%" viewBox="0 0 512 512" enable-background="new 0 0 512 512" xml:space="preserve">
<path fill="#000000" opacity="1.000000" stroke="none" 
	d="
M513.000000,236.531342 
	C510.043762,254.183929 503.245728,269.706879 492.257782,283.222992 
	C480.229523,298.018799 465.659027,309.535339 446.453064,312.968781 
	C415.215271,318.553070 390.219818,300.516571 384.822937,268.510529 
	C379.992584,239.864349 388.186920,214.470337 406.554047,192.064499 
	C418.361603,177.660583 432.867126,167.625412 451.245026,164.387253 
	C477.253143,159.804672 499.498260,171.566986 509.250488,196.959412 
	C510.782928,200.949493 511.652740,205.194077 512.914429,209.660492 
	C513.000000,218.687561 513.000000,227.375137 513.000000,236.531342 
M471.401184,187.171310 
	C468.779022,186.088226 466.138092,185.346497 463.216949,185.314178 
	C447.920319,185.144913 436.273743,192.837845 426.240173,203.138290 
	C419.887390,209.660095 415.043915,217.491287 411.516541,226.037292 
	C405.807007,239.870117 402.812225,254.021729 407.437469,268.710999 
	C413.378418,287.578857 426.482971,294.876099 443.385742,291.051544 
	C458.509186,287.629578 469.766235,277.568176 478.278656,265.130707 
	C488.178528,250.665939 493.528870,234.346954 491.506714,216.585785 
	C490.057953,203.860718 484.717957,193.042786 471.401184,187.171310 
z"/>
<path fill="#000000" opacity="1.000000" stroke="none" 
	d="
M1.000000,206.468658 
	C3.326118,203.996338 3.311249,200.938095 4.248172,198.365952 
	C10.751970,180.511078 22.650227,168.503571 41.507923,164.575317 
	C57.711021,161.200043 72.973282,164.743835 86.695312,173.654037 
	C111.017273,189.447174 124.967430,212.148651 129.357132,240.690979 
	C132.159622,258.913025 130.714676,276.638580 119.835686,292.223236 
	C111.194237,304.602448 99.350594,312.025238 83.817322,313.463806 
	C63.915462,315.306946 47.574677,307.871796 33.168667,295.151855 
	C17.270357,281.114258 7.068980,263.590576 2.399320,242.869919 
	C2.222005,242.083099 1.685300,241.377258 1.158032,240.316833 
	C1.000000,228.979111 1.000000,217.958206 1.000000,206.468658 
M64.348495,289.174194 
	C86.909103,296.407654 102.084846,287.895905 107.575485,264.776062 
	C110.572510,252.156296 108.159302,239.958298 103.462837,228.265533 
	C96.226242,210.248672 84.697136,195.936981 66.285736,188.181854 
	C50.931808,181.714584 36.838821,185.591492 28.299597,198.944473 
	C21.780495,209.138565 20.642359,220.875168 22.698174,232.183304 
	C27.267143,257.315125 39.933643,277.238770 64.348495,289.174194 
z"/>
<path fill="#000000" opacity="1.000000" stroke="none" 
	d="
M175.255035,263.454895 
	C182.577591,246.642776 192.560562,232.373764 207.668137,222.205002 
	C219.981857,213.916718 233.400421,208.831070 248.363235,207.556686 
	C262.817078,206.325638 276.674957,207.910416 290.122925,213.440430 
	C308.957855,221.185669 323.509613,233.744293 332.894043,251.840118 
	C342.376923,270.125793 350.896484,288.902557 362.838043,305.850739 
	C372.634003,319.753815 384.031281,332.138306 396.105713,344.059296 
	C408.640503,356.434814 415.724823,371.807892 418.369415,389.219055 
	C422.585052,416.973572 415.883545,441.847687 396.991608,462.553864 
	C383.882538,476.921875 367.276123,486.253693 347.977264,490.371033 
	C329.479889,494.317413 311.511200,491.482056 293.419281,487.296906 
	C268.161011,481.453979 242.764374,481.879730 217.497635,487.771027 
	C206.833923,490.257416 196.120087,492.845276 185.117355,492.279663 
	C161.175461,491.048920 140.018539,483.215302 122.150848,466.446747 
	C107.306778,452.515778 98.316994,435.670441 96.003151,415.921356 
	C92.810638,388.672546 98.928223,363.581848 119.187943,343.718506 
	C141.626526,321.718903 159.465698,296.549835 173.276703,268.424011 
	C174.004044,266.942780 174.487366,265.341675 175.255035,263.454895 
M205.335098,254.790649 
	C203.517853,257.954529 201.564560,261.048859 199.906357,264.294006 
	C191.668640,280.415680 184.015350,296.845245 174.084900,312.057770 
	C162.594559,329.659973 148.775192,345.238556 134.086700,360.242676 
	C119.252998,375.395142 114.922066,394.336578 118.028114,415.011902 
	C120.328087,430.321625 128.159134,442.694763 139.834732,452.529785 
	C157.424316,467.346558 177.730988,473.412323 200.475616,469.121948 
	C213.152618,466.730713 225.605301,463.468201 238.579819,462.435059 
	C259.573547,460.763275 280.295532,461.550720 300.825806,466.363800 
	C308.236664,468.101166 315.616333,470.317657 323.241425,470.574341 
	C345.261963,471.315613 364.152740,464.072693 379.793732,448.231171 
	C397.854126,429.939270 403.052032,399.934174 391.990112,376.711334 
	C387.161713,366.574799 379.546509,359.036072 371.593445,351.324524 
	C360.299835,340.373932 350.612732,327.836121 341.850098,314.694489 
	C331.698608,299.469910 323.353821,283.259827 315.869751,266.587189 
	C305.174500,242.760818 278.737061,225.875717 250.464050,229.296326 
	C232.104004,231.517639 217.133347,239.557892 205.335098,254.790649 
z"/>
<path fill="#000000" opacity="1.000000" stroke="none" 
	d="
M377.148682,38.901608 
	C387.941650,51.983681 393.196716,66.919601 395.408356,83.184715 
	C398.272644,104.250175 395.714325,124.605438 387.189697,144.011429 
	C379.961060,160.467194 369.452881,174.328430 353.101654,182.966751 
	C336.671417,191.646820 314.822906,188.368423 301.389893,175.642853 
	C287.817322,162.785065 281.485474,146.631409 278.539642,128.681030 
	C274.630768,104.862267 277.985748,82.059006 288.753876,60.572868 
	C295.053040,48.003895 303.659943,37.155846 315.890198,29.462862 
	C335.215607,17.306961 357.614655,19.484655 373.715118,35.460648 
	C374.779022,36.516376 375.839630,37.575409 377.148682,38.901608 
M360.154449,53.365974 
	C353.813446,46.307579 346.492401,41.582531 336.504303,44.354649 
	C326.780945,47.053299 319.742645,53.476780 314.188232,61.606621 
	C302.862457,78.183716 298.159943,96.513329 299.238068,116.575180 
	C299.960754,130.023468 303.472473,142.430817 311.289246,153.353378 
	C320.594666,166.356110 334.136597,170.961990 348.371338,159.573242 
	C359.166565,150.936325 365.969421,139.697601 369.984192,126.823792 
	C377.980072,101.184319 377.097290,76.484634 360.154449,53.365974 
z"/>
<path fill="#000000" opacity="1.000000" stroke="none" 
	d="
M157.721863,180.422302 
	C140.695557,169.634918 130.136993,154.284546 123.843597,135.884659 
	C119.027069,121.802635 116.742157,107.197792 117.714424,92.308678 
	C119.205872,69.468964 125.617355,48.707333 143.225204,32.545761 
	C157.450684,19.488741 180.659653,17.936493 198.663483,29.528608 
	C215.418396,40.316597 224.964554,56.390369 231.313889,74.660027 
	C235.537231,86.812302 237.580353,99.465584 237.257660,112.297073 
	C236.757217,132.195587 232.656891,151.196899 220.284012,167.471542 
	C204.011200,188.875977 179.875305,193.255295 157.721863,180.422302 
M199.620468,157.133896 
	C204.795990,151.373047 208.746765,144.876022 211.100540,137.487228 
	C215.714294,123.004120 216.990509,108.228249 213.557495,93.373184 
	C209.691254,76.643608 203.290512,61.380257 189.213745,50.061108 
	C174.978043,38.614147 160.813400,43.243176 151.979233,55.887569 
	C140.862839,71.798515 137.965225,89.543327 140.239670,108.499771 
	C142.532272,127.607506 149.495438,144.391998 163.896271,157.622681 
	C174.012527,166.916962 187.998505,169.896484 199.620468,157.133896 
z"/>
<path fill="#000000" opacity="1.000000" stroke="none" 
	d="
M356.121765,360.920410 
	C360.365997,364.625763 363.079102,368.913055 362.022186,374.227722 
	C360.271637,383.030243 350.130768,385.740173 343.405792,379.349854 
	C332.560760,369.044525 323.216370,357.440094 314.726501,345.161621 
	C312.003876,341.224060 308.459198,337.766602 306.740265,333.218323 
	C304.131744,326.316132 305.437592,319.711792 312.122131,317.478577 
	C316.701935,315.948517 321.326447,316.727203 324.193695,320.607819 
	C332.644928,332.045898 340.697632,343.775238 350.117157,354.486145 
	C351.980713,356.605133 354.033173,358.525238 356.121765,360.920410 
z"/>
<path fill="#000000" opacity="1.000000" stroke="none" 
	d="
M304.439636,300.476013 
	C296.710266,304.467194 291.365845,303.636627 288.102692,298.265594 
	C285.390808,293.801819 286.165070,287.284332 289.780853,284.140076 
	C293.519257,280.889099 300.249298,280.809814 304.066467,283.971710 
	C307.715668,286.994476 308.633179,293.530792 306.035614,298.083557 
	C305.625641,298.802124 305.161163,299.489624 304.439636,300.476013 
z"/>
</svg>