<svg viewBox="0 0 72 72" xmlns="http://www.w3.org/2000/svg"><g fill="#3f3f3f"><path d="m11.2544 18.6688s-.4167 2.75-.1667 3.1667 2.3333 2.8333 2.6667 2.8333 2.5.25 2.5.25l1.4167-2.8333-1.6667-2.8333-3.0833-1.25z"/><path d="m16.2544 10.5855-.1667 2.75 2.0833 2.4166h2.25l1.1667-1.6666-.5-3-2.3333-2.5z"/><path d="m26.5044 7.3355-1.9167 2.5 1.0833 2.1667 1.0833 1.3333 2.5833.0833.75-2.1667-.25-2.75s-.75-1.1667-1.0833-1.1667c-.3333.0001-2.2499.0001-2.2499.0001z"/><path d="m34.671 10.9188-1 3.0833s.1667 3.25.4167 3.5 2.6667 1.25 2.6667 1.25l1.5833-2.3333.3333-3.5833-1.75-1.8333z"/><path d="m22.0044 20.8355c-.0833.25-1.6667 3.5833-1.6667 3.5833l.3333 3.5833-1.1667 3.3333.6667 3.3333 2.8333 2.0833 3.5833-.5 2.1667-2.5833 5.25 1.4167s3.5-2 3.4167-2.25.5833-4.3333.5833-4.3333-2.8333-3.5833-3.5833-3.4167c0 0-1.1667-4.5-4.3333-5.4167-3.1667-.9167-6-.5-6-.5z"/><path d="m34.7544 40.5855s-1.25 3.1667-1.0833 3.4167 1.4167 3.25 1.4167 3.25 2.5833.4167 2.6667.1667c.0833-.25 1.0833-2.9167 1.0833-2.9167l-.0833-3.1667z"/><path d="m44.171 35.0855-1.75 3.1666 1.25 3.5834 3.6667-1.5834.5-2.5-.9167-2.4166z"/><path d="m53.2544 37.3355c-.0833.25-2.4167 3.4167-2.4167 3.4167l.9167 3.1667 2.8333-.0833 2-3.0833-.5833-3z"/><path d="m58.671 45.3355-2.5 3.0833-.5 2.75 1.4167 1 3.75-1s1-2.1667 1-2.4167-.4167-2.8333-.4167-2.8333z"/><path d="m41.0044 48.7521c-.1975.9874-2.1667 4.5-2.1667 4.5s-2.9167 1.9167-3.0833 2.25c-.1667.3333-.75 3.5833-.75 3.5833l1.5 2.8333 2.4167 1.25 4.75-1.4167 3.25 3.5s3.25.5 4.5833-.9167 1.9167-4.3333 1.9167-4.3333l-1.5-3 .5833-4s-1.0833-5.3333-3.75-5.8333c-2.6667-.4999-7.5.3334-7.75 1.5834z"/></g><path d="m34.2042 25.0412c-.0364-.2205-.0784-.4413-.134-.6623-1.0117-4.0167-4.871-6.5074-8.6199-5.5631s-5.9678 4.9659-4.9561 8.9826c.0557.221.1233.4353.1957.6468-1.1533 1.1787-1.6914 2.9682-1.2371 4.7717.6745 2.6778 3.2473 4.3382 5.7466 3.7087 1.6833-.424 3.7084-3.5122 3.9147-3.5641.2063-.052 3.4527 1.7084 5.136 1.2844 2.4993-.6295 3.9785-3.3106 3.3041-5.9884-.4544-1.8035-1.7759-3.1246-3.35-3.6163z" style="fill:none;stroke:#000;stroke-linecap:round;stroke-linejoin:round;stroke-miterlimit:10;stroke-width:2"/><ellipse cx="19.0129" cy="12.4327" rx="2.6883" ry="3.7634" style="fill:none;stroke:#000;stroke-linecap:round;stroke-linejoin:round;stroke-miterlimit:10;stroke-width:2" transform="matrix(.9327 -.3607 .3607 .9327 -3.2047 7.6957)"/><ellipse cx="14.1245" cy="21.5497" rx="2.6883" ry="3.7634" style="fill:none;stroke:#000;stroke-linecap:round;stroke-linejoin:round;stroke-miterlimit:10;stroke-width:2" transform="matrix(.8286 -.5598 .5598 .8286 -9.6426 11.5991)"/><ellipse cx="36.1324" cy="14.8271" rx="3.7634" ry="2.6883" style="fill:none;stroke:#000;stroke-linecap:round;stroke-linejoin:round;stroke-miterlimit:10;stroke-width:2" transform="matrix(.0748 -.9972 .9972 .0748 18.6429 49.7486)"/><ellipse cx="27.7026" cy="10.244" rx="2.6883" ry="3.7634" style="fill:none;stroke:#000;stroke-linecap:round;stroke-linejoin:round;stroke-miterlimit:10;stroke-width:2" transform="matrix(.9893 -.1458 .1458 .9893 -1.1975 4.1481)"/><path d="m52.0157 56.9056c.0775-.2096.1503-.4223.2113-.6418 1.1089-3.991-1.0118-8.0652-4.7367-9.1002s-7.6434 1.3613-8.7523 5.3523c-.061.2196-.1083.4393-.1501.6589-1.5855.4534-2.9387 1.742-3.4366 3.534-.7393 2.6606.6745 5.3768 3.1578 6.0668 1.6725.4647 4.9607-1.2164 5.1656-1.1594s2.1545 3.1934 3.8271 3.6581c2.4832.69 5.0956-.9076 5.8349-3.5682.4978-1.7922.0033-3.5942-1.121-4.8005z" style="fill:none;stroke:#000;stroke-linecap:round;stroke-linejoin:round;stroke-miterlimit:10;stroke-width:2"/><ellipse cx="45.0559" cy="38.431" rx="3.7634" ry="2.6883" style="fill:none;stroke:#000;stroke-linecap:round;stroke-linejoin:round;stroke-miterlimit:10;stroke-width:2" transform="matrix(.1482 -.989 .989 .1482 .3735 77.2956)"/><ellipse cx="36.2959" cy="43.9335" rx="2.6883" ry="3.7634" style="fill:none;stroke:#000;stroke-linecap:round;stroke-linejoin:round;stroke-miterlimit:10;stroke-width:2" transform="matrix(.9971 -.0763 .0763 .9971 -3.2453 2.8964)"/><ellipse cx="58.7464" cy="48.9846" rx="3.7634" ry="2.6883" style="fill:none;stroke:#000;stroke-linecap:round;stroke-linejoin:round;stroke-miterlimit:10;stroke-width:2" transform="matrix(.5586 -.8295 .8295 .5586 -14.6983 70.3506)"/><ellipse cx="53.6899" cy="40.8299" rx="3.7634" ry="2.6883" style="fill:none;stroke:#000;stroke-linecap:round;stroke-linejoin:round;stroke-miterlimit:10;stroke-width:2" transform="matrix(.363 -.9318 .9318 .363 -3.8434 76.038)"/></svg>